<?xml version="1.0"?>
<svg xmlns="http://www.w3.org/2000/svg" viewBox="0 0 1000 852.62">
  <path fill="currentColor" d="M979.2,355.33C921.76,162.3,745.42,2.79,500,0,254.58,2.79,78.24,162.3,20.8,355.33c-49.57,166.6-12.75,356.47,134.11,497.29-87.95-100.95-128.33-214.39-131.06-323.61l116.17-125.25,169.83,34.27,72.06,206.41-108.13,174.6,115.24-169.17h221.94l115.24,169.17-108.13-174.6,72.06-206.41,169.83-34.27,116.17,125.25c-2.72,109.22-43.1,222.66-131.06,323.61,146.86-140.82,183.68-330.69,134.11-497.29ZM500,39.03c41.11,0,81.36,5.35,119.97,15.49l-119.97,52.13-119.97-52.13c38.61-10.14,78.86-15.49,119.97-15.49ZM23.91,503.81c1.34-48.1,9.93-95.12,24.92-139.59,14.01-41.58,33.38-80.23,57.13-115.32l13.86,134.17-95.91,120.74ZM146.88,378.03l-10.11-169.8c51.88-61.36,118.45-108.71,193.17-137.51l155.38,62.21,2.3,157.86-172.16,128.95-168.57-41.72ZM609.86,640.1h-219.72l-62.28-206.89,172.15-121.28h0s0,0,0,0l172.15,121.28-62.28,206.89ZM853.12,378.03l-168.57,41.72-172.16-128.95,2.3-157.86,155.38-62.21c74.72,28.81,141.28,76.15,193.17,137.51l-10.11,169.8ZM880.18,383.07l13.86-134.17c23.75,35.09,43.12,73.74,57.13,115.32,14.99,44.47,23.57,91.49,24.92,139.59l-95.91-120.74Z"></path>
</svg>